Coordinates
version=1
nRows=24
nColumns=24
inDegrees=yes

Units are S.I. units (second, meters, Newtons, ...)
Angles are in degrees.

endheader
time	pelvis_tilt	pelvis_list	pelvis_rotation	pelvis_tx	pelvis_ty	pelvis_tz	hip_flexion_r	hip_adduction_r	hip_rotation_r	knee_angle_r	ankle_angle_r	subtalar_angle_r	mtp_angle_r	hip_flexion_l	hip_adduction_l	hip_rotation_l	knee_angle_l	ankle_angle_l	subtalar_angle_l	mtp_angle_l	lumbar_extension	lumbar_bending	lumbar_rotation
      1.49500000	      4.17819482	     -9.80938534	      6.11460986	      0.56425860	      0.91132949	      0.02098259	      3.21864399	     14.26602723	     -8.14069897	    -15.82078576	     18.55297147	     -5.33643988	     24.02100319	     17.64196562	     -8.59115340	      6.12590525	    -68.56984861	     15.39112431	     -1.14287245	     25.43178980	    -12.35852251	     10.02470615	     -6.00042900
      1.50000000	      4.29378295	     -9.61698627	      6.23542997	      0.57155255	      0.91225790	      0.02070664	      2.20394995	     14.22586129	     -7.67655688	    -15.10893118	     18.55119518	     -5.86881409	     23.90336076	     18.15470791	     -8.26090420	      6.13602430	    -67.68575141	     15.70972796	     -1.44485250	     25.38627128	    -12.47015134	      9.85110745	     -6.09640010
      1.50500000	      4.43930164	     -9.40988116	      6.29756258	      0.57889007	      0.91322060	      0.02050288	      1.13456465	     14.17163969	     -7.15385592	    -14.37712808	     18.48799296	     -6.37356529	     23.76323955	     18.56337844	     -7.95699520	      6.05129755	    -66.67249139	     16.01187492	     -1.71993873	     25.30294891	    -12.62312696	      9.65386132	     -6.13398054
      1.51000000	      4.58675003	     -9.20338218	      6.34953535	      0.58620412	      0.91411400	      0.02031628	      0.06444038	     14.11220771	     -6.63956810	    -13.64589287	     18.41526322	     -6.86811755	     23.61434001	     18.93451571	     -7.66377794	      5.95399217	    -65.56670212	     16.28042053	     -1.98797729	     25.18058706	    -12.78424905	      9.45402979	     -6.16805558
      1.51500000	      4.74672525	     -9.01217953	      6.37831858	      0.59351962	      0.91495120	      0.02014091	     -1.02267310	     14.06121552	     -6.12120705	    -12.91115027	     18.32496714	     -7.33110753	     23.44999351	     19.25555766	     -7.41023991	      5.81824900	    -64.37442510	     16.53315095	     -2.22565677	     24.99916685	    -12.96224985	      9.27209393	     -6.18098688
      1.52000000	      4.88354867	     -8.80793436	      6.41024483	      0.60079012	      0.91569174	      0.01996190	     -2.07572731	     13.98561954	     -5.64311436	    -12.18979391	     18.23794917	     -7.79373413	     23.30083891	     19.56769999	     -7.13791694	      5.69543810	    -63.08800852	     16.74042177	     -2.46388557	     24.79647675	    -13.12193605	      9.07187779	     -6.20316532
      1.52500000	      5.01394562	     -8.60784752	      6.42454762	      0.60804555	      0.91636197	      0.01980655	     -3.11654147	     13.90571339	     -5.18427665	    -11.47863134	     18.14098658	     -8.23444393	     23.16941822	     19.84853505	     -6.88305927	      5.55607902	    -61.71352522	     16.91610595	     -2.67482778	     24.57711237	    -13.27905354	      8.87160845	     -6.20983449
      1.53000000	      5.13450102	     -8.41483769	      6.42766311	      0.61527568	      0.91694701	      0.01964868	     -4.14070865	     13.82156745	     -4.75821132	    -10.77637037	     18.04142132	     -8.64572799	     23.06363458	     20.10630000	     -6.64331987	      5.40714139	    -60.25412227	     17.05178950	     -2.86880615	     24.36083532	    -13.42996017	      8.67915670	     -6.21167662
      1.53500000	      5.25441709	     -8.22822875	      6.41483140	      0.62247663	      0.91746174	      0.01951290	     -5.15394569	     13.73461381	     -4.35893693	    -10.09183556	     17.94108299	     -9.01507285	     22.98369756	     20.32679415	     -6.42300934	      5.24700199	    -58.70883837	     17.15936638	     -3.02578276	     24.14018574	    -13.58618148	      8.48901382	     -6.18345266
      1.54000000	      5.34890652	     -8.04404564	      6.39132462	      0.62965462	      0.91787302	      0.01938775	     -6.12781422	     13.63816086	     -4.01105808	     -9.42877154	     17.84524335	     -9.34076841	     22.92942371	     20.54014620	     -6.21066708	      5.08365506	    -57.08173664	     17.23005523	     -3.15335504	     23.94304393	    -13.71921028	      8.29732890	     -6.16309444
      1.54500000	      5.45915273	     -7.88058525	      6.34125761	      0.63683022	      0.91823996	      0.01930682	     -7.11457976	     13.55472778	     -3.68546103	     -8.77345673	     17.73670687	     -9.61037655	     22.89952025	     20.69782710	     -6.04813217	      4.87889073	    -55.37451244	     17.27995137	     -3.25691892	     23.73962781	    -13.87375035	      8.12302199	     -6.10797641
      1.55000000	      5.56561385	     -7.73390385	      6.27627382	      0.64398143	      0.91853395	      0.01924629	     -8.08301592	     13.47877802	     -3.39500523	     -8.14163330	     17.62888007	     -9.81976121	     22.89962364	     20.82413853	     -5.91530943	      4.66335457	    -53.58985669	     17.30451355	     -3.33107500	     23.52959705	    -14.02927779	      7.96462807	     -6.03895298
      1.55500000	      5.65165277	     -7.59747354	      6.19709330	      0.65111901	      0.91874058	      0.01920423	     -9.01363306	     13.40162330	     -3.15133876	     -7.53790235	     17.52933353	     -9.97124806	     22.92825504	     20.93535595	     -5.80179067	      4.43710657	    -51.72738839	     17.29428960	     -3.38026611	     23.32619018	    -14.16339880	      7.81167692	     -5.95373004
      1.56000000	      5.75640025	     -7.48000326	      6.10190917	      0.65824807	      0.91890175	      0.01918865	     -9.95406342	     13.33627061	     -2.94152778	     -6.95228217	     17.42124550	    -10.04646132	     22.99467193	     20.98938798	     -5.72646631	      4.18619983	    -49.79257005	     17.27031306	     -3.40350497	     23.11373907	    -14.32410897	      7.67679507	     -5.85253304
      1.56500000	      5.84519544	     -7.37196088	      5.99592379	      0.66536170	      0.91898415	      0.01917714	    -10.85626767	     13.26838872	     -2.77610419	     -6.40597786	     17.32516714	    -10.06265409	     23.09502040	     21.02117715	     -5.66800863	      3.92336291	    -47.78010941	     17.21468782	     -3.39375587	     22.90977717	    -14.47048643	      7.55067380	     -5.73916358
      1.57000000	      5.89813074	     -7.26728490	      5.87980170	      0.67249192	      0.91894658	      0.01921390	    -11.69992190	     13.19779284	     -2.67623733	     -5.89812770	     17.27185695	    -10.04871372	     23.19902190	     21.05777080	     -5.62201013	      3.63958890	    -45.70814512	     17.10724059	     -3.33375328	     22.74738502	    -14.57398098	      7.41473253	     -5.61550323
      1.57500000	      6.00678734	     -7.19565459	      5.74652862	      0.67961766	      0.91893173	      0.01924100	    -12.60006653	     13.15106255	     -2.57265032	     -5.39480814	     17.17305627	     -9.92311541	     23.35968350	     20.99126740	     -5.62771302	      3.32820686	    -43.56417741	     17.01801578	     -3.26997781	     22.57498856	    -14.74371457	      7.32225942	     -5.45937392
      1.58000000	      6.09729523	     -7.12097164	      5.60536429	      0.68673503	      0.91883812	      0.01928035	    -13.45368730	     13.09206097	     -2.51383395	     -4.94472823	     17.10439729	     -9.75452521	     23.55836776	     20.90018650	     -5.63202397	      3.00794753	    -41.34537354	     16.88728099	     -3.14375997	     22.41804199	    -14.89550310	      7.22068387	     -5.29109057
      1.58500000	      6.18241726	     -7.06047670	      5.44951966	      0.69386876	      0.91868282	      0.01932467	    -14.28032840	     13.03625173	     -2.48151305	     -4.53646263	     17.05211203	     -9.54199436	     23.78185936	     20.77516822	     -5.65767413	      2.66135735	    -39.07227080	     16.73528038	     -2.96348489	     22.28774147	    -15.04169559	      7.13168853	     -5.10787119
      1.59000000	      6.29128844	     -7.01785520	      5.29317288	      0.70101451	      0.91849629	      0.01937030	    -15.11106755	     12.99434153	     -2.49545217	     -4.16760826	     16.97494560	     -9.26244908	     24.06345742	     20.58583329	     -5.70828870	      2.29270002	    -36.74325420	     16.57524023	     -2.72769664	     22.17173909	    -15.21443131	      7.06195358	     -4.93075514
      1.59500000	      6.37317268	     -6.97375778	      5.10757010	      0.70820193	      0.91822461	      0.01942907	    -15.90018997	     12.93406352	     -2.49672302	     -3.83345958	     16.96876105	     -8.95556181	     24.33472797	     20.38121185	     -5.76044086	      1.88607823	    -34.37161914	     16.39054953	     -2.41045795	     22.09543276	    -15.35436395	      6.98361242	     -4.69338354
      1.60000000	      6.47026159	     -6.94486233	      4.92153010	      0.71542561	      0.91791953	      0.01947352	    -16.68501137	     12.88199192	     -2.53483700	     -3.54090232	     16.94168022	     -8.60018311	     24.62994955	     20.12253443	     -5.82796387	      1.46126699	    -31.95999076	     16.19516326	     -2.02847895	     22.04715034	    -15.50750505	      6.92303239	     -4.46693502
      1.60500000	      6.57854924	     -6.92672064	      4.71955714	      0.72267926	      0.91757460	      0.01950340	    -17.46097118	     12.82765414	     -2.58246141	     -3.29336972	     16.93828095	     -8.19570950	     24.94831205	     19.81296798	     -5.90605996	      1.00231224	    -29.51775711	     15.99286298	     -1.56655421	     22.02816416	    -15.67182133	      6.87443730	     -4.21251035
      1.61000000	      6.70970828	     -6.91572810	      4.51152058	      0.72999158	      0.91722107	      0.01952073	    -18.24028992	     12.77054083	     -2.66438925	     -3.09347511	     16.91511364	     -7.74817056	     25.32455604	     19.44028556	     -5.98937983	      0.50967751	    -27.05614177	     15.77284030	     -1.04992943	     22.04369740	    -15.85778747	      6.83307331	     -3.97452487
